<?xml version="1.0" encoding="utf-8"?>
<!-- Generator: Adobe Illustrator 16.0.0, SVG Export Plug-In . SVG Version: 6.00 Build 0)  -->
<!DOCTYPE svg PUBLIC "-//W3C//DTD SVG 1.1//EN" "http://www.w3.org/Graphics/SVG/1.1/DTD/svg11.dtd">
<svg version="1.1" id="Layer_1" xmlns="http://www.w3.org/2000/svg" xmlns:xlink="http://www.w3.org/1999/xlink" x="0px" y="0px"
	 width="285px" height="285px" viewBox="0 0 285 285" enable-background="new 0 0 285 285" xml:space="preserve">
<g>
	<path d="M0.263,0v284.477h284.473V0H0.263z M13.415,271.323V13.152h258.169v258.171H13.415z"/>
	<path d="M99.125,227.488v-70.756l-3.959,21.244L84.77,227.489H71l-9.819-49.513l-3.81-21.244v70.757H41.112v-97.568h24.463
		l10.111,49.515l3.075,18.017l3.221-18.017l9.964-49.515h24.32v97.568L99.125,227.488L99.125,227.488z"/>
	<path d="M226.844,227.488l-11.43-33.692l-12.449,33.692H185.23l20.076-49.223l-18.898-48.345h19.043l10.695,33.695l11.719-33.695
		h17.871l-19.484,46.88l19.639,50.688H226.844z"/>
	<path d="M75.118,116.081V75.027l-2.327,12.318l-6.087,28.735h-8.077l-5.755-28.735l-2.229-12.318v41.053h-9.53V59.462h14.342
		l5.917,28.736l1.807,10.455l1.897-10.455l5.833-28.736h14.246v56.618L75.118,116.081L75.118,116.081z"/>
	<path d="M158.248,116.081l-7.885-23.297l-3.687,7.483v15.813h-10.661V59.462h10.661v25.936l11.496-25.936h10.736L157.65,83.361
		l11.763,32.719L158.248,116.081L158.248,116.081z"/>
	<path d="M177.457,116.081V59.462h27.295v9.096H188.1v14.027h11.5v8.329h-11.5v15.728h16.652v9.438L177.457,116.081L177.457,116.081
		z"/>
	<path d="M239.447,116.436c-4.203,0-5.844-3.394-5.844-8.322V97.478c0-2.625-1.365-4.846-4.375-4.846h-5.586V116.1h-10.646V59.48
		H230.6c7.816,0,13.062,4.434,13.062,12.324v7.993c0,4.253-1.99,7.407-6.449,8.767c4.459,1.175,6.613,4.919,6.613,8.574v10.373
		c0,2.641,0.771,4.43,2.064,5.779v3.146H239.447L239.447,116.436z M233.262,72.233c0-2.546-1.127-4.081-3.779-4.081h-5.84v16.667
		h5.41c2.752,0,4.209-1.439,4.209-4.507V72.233z"/>
	<path d="M117.414,116.083l-1.868-11.132h-10.028l-2.039,11.132H93.62l11.391-56.596h11.81l11.304,56.596H117.414z M110.788,74.779
		l-3.823,21.842h7.224L110.788,74.779z"/>
	<path d="M164.064,227.488l-3.219-19.192h-17.279l-3.52,19.192h-16.996l19.638-97.585h20.354l19.492,97.585H164.064L164.064,227.488
		z M152.641,156.273l-6.588,37.66h12.451L152.641,156.273z"/>
</g>
</svg>
